<svg width="28" height="28" viewBox="0 0 28 28" fill="none" xmlns="http://www.w3.org/2000/svg">
<path d="M19.8334 21.5017H15.1667L9.97503 24.955C9.20503 25.4683 8.16671 24.92 8.16671 23.9867V21.5017C4.66671 21.5017 2.33337 19.1684 2.33337 15.6684V8.66829C2.33337 5.16829 4.66671 2.83496 8.16671 2.83496H19.8334C23.3334 2.83496 25.6667 5.16829 25.6667 8.66829V15.6684C25.6667 19.1684 23.3334 21.5017 19.8334 21.5017Z" stroke="#243956" stroke-width="2" stroke-miterlimit="10" stroke-linecap="round" stroke-linejoin="round"/>
<path d="M14 13.2533V13.0083C14 12.215 14.49 11.795 14.98 11.4567C15.4584 11.13 15.9366 10.71 15.9366 9.94C15.9366 8.86667 15.0733 8.0033 14 8.0033C12.9267 8.0033 12.0634 8.86667 12.0634 9.94" stroke="#243956" stroke-width="2" stroke-linecap="round" stroke-linejoin="round"/>
<path d="M13.9947 16.0416H14.0052" stroke="#243956" stroke-width="2" stroke-linecap="round" stroke-linejoin="round"/>
</svg>
