<svg width="28" height="28" viewBox="0 0 28 28" fill="none" xmlns="http://www.w3.org/2000/svg">
<path d="M25.6667 9.94V4.64333C25.6667 2.99833 24.92 2.33333 23.065 2.33333H18.3517C16.4967 2.33333 15.75 2.99833 15.75 4.64333V9.92833C15.75 11.585 16.4967 12.2383 18.3517 12.2383H23.065C24.92 12.25 25.6667 11.585 25.6667 9.94Z" stroke="#243956" stroke-width="2" stroke-linecap="round" stroke-linejoin="round"/>
<path d="M25.6667 23.065V18.3517C25.6667 16.4967 24.92 15.75 23.065 15.75H18.3517C16.4967 15.75 15.75 16.4967 15.75 18.3517V23.065C15.75 24.92 16.4967 25.6667 18.3517 25.6667H23.065C24.92 25.6667 25.6667 24.92 25.6667 23.065Z" stroke="#243956" stroke-width="2" stroke-linecap="round" stroke-linejoin="round"/>
<path d="M12.25 9.94V4.64333C12.25 2.99833 11.5034 2.33333 9.64838 2.33333H4.93504C3.08004 2.33333 2.33337 2.99833 2.33337 4.64333V9.92833C2.33337 11.585 3.08004 12.2383 4.93504 12.2383H9.64838C11.5034 12.25 12.25 11.585 12.25 9.94Z" stroke="#243956" stroke-width="2" stroke-linecap="round" stroke-linejoin="round"/>
<path d="M12.25 23.065V18.3517C12.25 16.4967 11.5034 15.75 9.64838 15.75H4.93504C3.08004 15.75 2.33337 16.4967 2.33337 18.3517V23.065C2.33337 24.92 3.08004 25.6667 4.93504 25.6667H9.64838C11.5034 25.6667 12.25 24.92 12.25 23.065Z" stroke="#243956" stroke-width="2" stroke-linecap="round" stroke-linejoin="round"/>
</svg>
