<svg width="61" height="56" viewBox="0 0 61 56" fill="none" xmlns="http://www.w3.org/2000/svg">
<path fill-rule="evenodd" clip-rule="evenodd" d="M42.3384 0.219141C42.6316 -0.0734597 43.1065 -0.0729861 43.3991 0.220199L52.1764 9.01502C52.227 9.06568 52.2688 9.12177 52.3018 9.18141H54.5595C57.6906 9.18141 60.2289 11.7197 60.2289 14.8508C60.2289 17.2136 58.7834 19.2388 56.7286 20.0904L52.7153 40.9518C51.7911 45.7633 50.6101 49.2439 42.6258 49.2439H27.145C19.8026 49.2439 17.8258 45.6097 17.0042 40.6446L13.6361 20.0703C11.6067 19.2073 10.1837 17.1952 10.1837 14.8508C10.1837 11.7197 12.722 9.18141 15.8531 9.18141H17.9653C17.9983 9.12177 18.0401 9.06568 18.0907 9.01502L26.868 0.220199C27.1606 -0.0729861 27.6355 -0.0734596 27.9287 0.219141C28.2218 0.511742 28.2223 0.986616 27.9297 1.2798L20.0438 9.18141H50.2233L42.3374 1.2798C42.0448 0.986616 42.0453 0.511742 42.3384 0.219141Z" fill="url(#paint0_linear_0_1)"/>
<path d="M27.0593 20.2294V31.2775" stroke="#F4F9FB" stroke-width="1.5" stroke-linecap="round"/>
<path d="M43.0621 20.2295V31.2775" stroke="#F4F9FB" stroke-width="1.5" stroke-linecap="round"/>
<path d="M3.58691 36.3251L13.5783 42.1072L23.5017 36.359" fill="#DDF0F6"/>
<path d="M3.58691 36.3251L13.5783 42.1072L23.5017 36.359" stroke="#7FD0EA" stroke-width="1.5" stroke-linecap="round" stroke-linejoin="round"/>
<path d="M13.5782 52.3588V42.0959" stroke="#7FD0EA" stroke-width="1.5" stroke-linecap="round" stroke-linejoin="round"/>
<path d="M11.236 30.7128L5.19368 34.0734C3.82453 34.8315 2.70435 36.7325 2.70435 38.294V44.6871C2.70435 46.2486 3.82453 48.1496 5.19368 48.9077L11.236 52.2684C12.526 52.9812 14.6419 52.9812 15.9318 52.2684L21.9742 48.9077C23.3433 48.1496 24.4635 46.2486 24.4635 44.6871V38.294C24.4635 36.7325 23.3433 34.8315 21.9742 34.0734L15.9318 30.7128C14.6306 29.9886 12.526 29.9886 11.236 30.7128Z" fill="#DDF0F6" stroke="#7FD0EA" stroke-width="1.5" stroke-linecap="round" stroke-linejoin="round"/>
<path d="M19.236 42.888V38.7466L8.4978 32.5458" stroke="#7FD0EA" stroke-width="1.5" stroke-linecap="round" stroke-linejoin="round"/>
<defs>
<linearGradient id="paint0_linear_0_1" x1="38.1159" y1="25.1001" x2="73.1054" y2="-35.2599" gradientUnits="userSpaceOnUse">
<stop stop-color="#7FD0EA"/>
<stop offset="1" stop-color="#7FD0EA" stop-opacity="0"/>
</linearGradient>
</defs>
</svg>
