<svg width="385" height="254" viewBox="0 0 385 254" fill="none" xmlns="http://www.w3.org/2000/svg">
<rect width="385" height="254" fill="#F5F5F5"/>
<path d="M189.25 124.5C190.631 124.5 191.75 123.381 191.75 122C191.75 120.619 190.631 119.5 189.25 119.5C187.869 119.5 186.75 120.619 186.75 122C186.75 123.381 187.869 124.5 189.25 124.5Z" stroke="#A09F9F" stroke-width="1.5" stroke-linecap="round" stroke-linejoin="round"/>
<path d="M194.25 114.5H189.25C183 114.5 180.5 117 180.5 123.25V130.75C180.5 137 183 139.5 189.25 139.5H196.75C203 139.5 205.5 137 205.5 130.75V124.5" stroke="#A09F9F" stroke-width="1.5" stroke-linecap="round" stroke-linejoin="round"/>
<path d="M204.112 118.725C203.725 117.35 202.65 116.275 201.275 115.887" stroke="#A09F9F" stroke-width="1.5" stroke-miterlimit="10" stroke-linecap="round" stroke-linejoin="round"/>
<path d="M181.337 135.687L187.5 131.55C188.487 130.887 189.912 130.962 190.8 131.725L191.212 132.087C192.187 132.925 193.762 132.925 194.737 132.087L199.937 127.625C200.912 126.787 202.487 126.787 203.462 127.625L205.5 129.375" stroke="#A09F9F" stroke-width="1.5" stroke-linecap="round" stroke-linejoin="round"/>
</svg>
