<svg width="28" height="28" viewBox="0 0 28 28" fill="none" xmlns="http://www.w3.org/2000/svg">
<path d="M2.33337 10.5V8.16671C2.33337 4.66671 4.66671 2.33337 8.16671 2.33337H19.8334C23.3334 2.33337 25.6667 4.66671 25.6667 8.16671V10.5" stroke="#243956" stroke-width="2" stroke-miterlimit="10" stroke-linecap="round" stroke-linejoin="round"/>
<path d="M2.33337 17.5V19.8333C2.33337 23.3333 4.66671 25.6667 8.16671 25.6667H19.8334C23.3334 25.6667 25.6667 23.3333 25.6667 19.8333V17.5" stroke="#243956" stroke-width="2" stroke-miterlimit="10" stroke-linecap="round" stroke-linejoin="round"/>
<path d="M7.81665 10.8033L14 14.385L20.1366 10.8267" stroke="#243956" stroke-width="2" stroke-linecap="round" stroke-linejoin="round"/>
<path d="M14 20.7316V14.3733" stroke="#243956" stroke-width="2" stroke-linecap="round" stroke-linejoin="round"/>
<path d="M12.5534 7.33832L8.82002 9.41502C7.98002 9.88169 7.28003 11.06 7.28003 12.0283V15.9834C7.28003 16.9517 7.96835 18.13 8.82002 18.5967L12.5534 20.6733C13.3467 21.1166 14.6534 21.1166 15.4584 20.6733L19.1917 18.5967C20.0317 18.13 20.7317 16.9517 20.7317 15.9834V12.0283C20.7317 11.06 20.0434 9.88169 19.1917 9.41502L15.4584 7.33832C14.6534 6.88332 13.3467 6.88332 12.5534 7.33832Z" stroke="#243956" stroke-width="2" stroke-linecap="round" stroke-linejoin="round"/>
</svg>
